<svg width="42" height="43" viewBox="0 0 42 43" fill="none" xmlns="http://www.w3.org/2000/svg">
<path d="M7 33.75V30.25H10.5V18C10.5 15.5792 11.2292 13.4281 12.6875 11.5469C14.1458 9.66562 16.0417 8.43333 18.375 7.85V6.625C18.375 5.89583 18.6302 5.27604 19.1406 4.76562C19.651 4.25521 20.2708 4 21 4C21.7292 4 22.349 4.25521 22.8594 4.76562C23.3698 5.27604 23.625 5.89583 23.625 6.625V7.85C25.9583 8.43333 27.8542 9.66562 29.3125 11.5469C30.7708 13.4281 31.5 15.5792 31.5 18V30.25H35V33.75H7ZM21 39C20.0375 39 19.2135 38.6573 18.5281 37.9719C17.8427 37.2865 17.5 36.4625 17.5 35.5H24.5C24.5 36.4625 24.1573 37.2865 23.4719 37.9719C22.7865 38.6573 21.9625 39 21 39ZM14 30.25H28V18C28 16.075 27.3146 14.4271 25.9437 13.0562C24.5729 11.6854 22.925 11 21 11C19.075 11 17.4271 11.6854 16.0562 13.0562C14.6854 14.4271 14 16.075 14 18V30.25Z" fill="white"/>
</svg>
