<svg width="42" height="43" viewBox="0 0 42 43" fill="none" xmlns="http://www.w3.org/2000/svg">
<path d="M21 37.25C18.8125 37.25 16.7635 36.8344 14.8531 36.0031C12.9427 35.1719 11.2802 34.049 9.86563 32.6344C8.45104 31.2198 7.32813 29.5573 6.49688 27.6469C5.66563 25.7365 5.25 23.6875 5.25 21.5C5.25 19.3125 5.66563 17.2635 6.49688 15.3531C7.32813 13.4427 8.45104 11.7802 9.86563 10.3656C11.2802 8.95104 12.9427 7.82813 14.8531 6.99688C16.7635 6.16563 18.8125 5.75 21 5.75C23.3917 5.75 25.6594 6.26042 27.8031 7.28125C29.9469 8.30208 31.7625 9.74583 33.25 11.6125V7.5H36.75V18H26.25V14.5H31.0625C29.8667 12.8667 28.3938 11.5833 26.6438 10.65C24.8938 9.71667 23.0125 9.25 21 9.25C17.5875 9.25 14.6927 10.4385 12.3156 12.8156C9.93854 15.1927 8.75 18.0875 8.75 21.5C8.75 24.9125 9.93854 27.8073 12.3156 30.1844C14.6927 32.5615 17.5875 33.75 21 33.75C24.0625 33.75 26.7385 32.7583 29.0281 30.775C31.3177 28.7917 32.6667 26.2833 33.075 23.25H36.6625C36.225 27.2458 34.5115 30.5781 31.5219 33.2469C28.5323 35.9156 25.025 37.25 21 37.25Z" fill="white"/>
</svg>
