<svg width="300" height="334" viewBox="0 0 300 334" fill="none" xmlns="http://www.w3.org/2000/svg">
<g clip-path="url(#clip0_19_136)">
<path d="M264.791 112.439C250.893 100.899 237.333 92.9211 219.936 87.9916C202.626 83.0871 184.789 82.5478 167.053 79.7506C166.852 79.713 166.375 80.2523 166.601 80.3903H166.626C152.452 77.0412 137.011 78.0823 122.586 78.9227C99.3812 80.2774 76.1007 87.2515 56.1818 99.2681C17.2848 122.749 -0.150531 167.303 -1.06144e-05 211.142C0.087793 234.975 7.38804 257.603 20.6088 277.334C33.6413 296.776 50.9387 309.483 72.3878 318.326C106.732 332.5 148.626 337.768 186.257 329.376C198.687 327.746 208.182 324.848 220.036 321.311C236.267 316.457 251.006 308.178 263.612 296.751C287.607 274.988 299.398 239.026 299.962 207.492C300.564 173.349 292.047 135.042 264.791 112.414V112.439Z" fill="black"/>
<path d="M268.14 284.458C256.261 299.561 241.962 308.88 221.366 316.607C221.541 316.507 221.729 316.419 221.905 316.319C209.888 320.458 197.483 323.167 184.739 324.785C180.223 325.362 175.72 325.952 171.205 326.353C144.625 329.552 117.368 326.818 91.1778 319.091C70.4938 312.995 50.901 303.662 35.9493 287.858C20.4081 271.426 10.2229 251.055 5.93302 228.941C-3.34908 181.001 15.0771 127.604 57.687 101.852C76.2136 90.6507 98.9547 84.4919 120.442 82.9992C141.841 81.5066 166.325 79.7254 185.429 91.5789C186.144 92.0305 187.674 90.0862 187.009 89.5971C185.278 88.3176 183.497 87.2138 181.678 86.1853C188.452 87.565 195.539 87.9664 202.362 88.9197C217.063 90.9517 233.056 97.1733 245.524 105.126C259.096 113.781 273.207 126.763 281.085 140.912C288.849 154.873 292.035 172.22 293.829 187.862C298.006 224.326 291.107 255.232 268.14 284.446V284.458Z" fill="#ED1C28"/>
<g style="mix-blend-mode:screen">
<path d="M34.6574 282.427C14.1114 246.113 2.88504 199.389 18.2883 159.087C29.7153 129.197 54.2376 105.803 82.548 90.5002C73.7928 93.4354 65.3762 97.2235 57.6871 101.865C15.0772 127.604 -3.33648 181.001 5.93308 228.942C10.2104 251.056 20.3956 271.439 35.9494 287.858C37.5549 289.551 39.2107 291.169 40.9166 292.712C38.7089 289.313 36.6142 285.876 34.6574 282.414V282.427Z" fill="#FDE8E9"/>
</g>
<g style="mix-blend-mode:multiply">
<path d="M293.829 187.875C292.035 172.233 288.849 154.885 281.085 140.925C273.22 126.776 259.109 113.793 245.524 105.138C233.056 97.1859 217.063 90.9644 202.362 88.9324C195.539 87.9791 188.452 87.5777 181.678 86.198C183.497 87.2265 185.291 88.3303 187.009 89.6098C187.662 90.0989 186.144 92.0306 185.429 91.5916C166.313 79.7506 141.841 81.5318 120.442 83.0119C108.977 83.8147 97.1612 85.9471 85.8219 89.4592C89.0205 96.1323 94.7654 101.739 101.501 105.439C114.132 112.363 127.579 112.589 141.602 112.978C142.455 113.003 142.706 113.919 142.242 114.521C133.449 125.747 118.385 129.448 105.001 131.781C88.0672 134.741 71.0835 138.391 53.8238 138.215C63.9212 150.056 83.2756 152.377 97.7883 152.954C118.272 153.769 136.949 147.911 155.789 140.498C156.052 140.398 156.491 140.498 156.667 140.724C169.336 156.491 183.146 171.342 195.451 187.41C206.025 201.208 214.881 216.072 216.399 233.796C218.819 262.056 201.02 287.783 177.476 302.057C148.539 319.618 112.351 320.333 80.328 311.878C71.4222 309.52 62.5916 306.46 54.0245 302.747C65.3637 310.047 78.0451 315.227 91.1654 319.091C117.356 326.805 144.613 329.539 171.192 326.353C175.708 325.952 180.211 325.363 184.727 324.786C197.471 323.155 209.863 320.446 221.893 316.319C221.717 316.407 221.529 316.507 221.353 316.607C241.949 308.881 256.249 299.573 268.127 284.459C291.094 255.245 297.993 224.338 293.816 187.875H293.829Z" fill="#DB4726"/>
</g>
<path d="M280.884 95.7811C269.269 105.465 253.991 105.565 239.604 106.895C231.501 107.647 223.824 107.108 216.336 105.665C227.763 102.178 239.29 91.7421 244.521 83.7144C249.626 75.8748 252.536 67.132 252.059 57.7245C251.708 50.8758 247.606 40.5902 240.62 38.1443C239.303 37.6802 237.358 40.6028 237.76 41.7191C243.994 59.0415 228.089 73.2908 214.09 80.7541C206.138 84.9938 196.906 86.6244 187.988 86.7248C184.902 86.7624 181.892 86.3485 178.856 85.8718C178.618 85.7464 178.379 85.6837 178.154 85.5959C176.034 84.2036 174.34 82.4851 172.973 80.5409C172.722 79.713 172.484 78.8852 172.258 78.0322C170.803 72.5382 169.323 67.0944 168.621 61.4499C169.524 46.172 177.577 28.8747 184.864 20.9599C188.226 17.3097 196.116 14.6631 197.445 9.29451C198.863 3.51201 187.812 1.22912 184.363 0.526688C169.875 -2.44609 160.417 7.93982 156.09 20.7968C154.622 25.1368 153.769 29.3388 153.418 33.5659C152.59 38.9596 152.452 44.5289 152.728 49.5337C153.092 56.3824 153.857 63.1307 154.133 70.0045C154.246 72.9772 154.547 76.4392 154.597 79.9764C153.205 81.5695 151.825 83.1625 150.433 84.7555C131.969 85.8718 115.474 75.3103 105.678 60.0576C100.058 51.3023 97.1735 42.547 96.0948 32.1485C95.5805 27.1814 96.0948 22.2393 96.6342 17.3097C96.8976 14.9014 97.8007 12.192 96.6718 9.89659C96.5965 9.74607 96.446 9.67081 96.2829 9.73353C91.3158 11.5398 89.4092 19.7557 87.904 24.2086C83.6267 36.8398 81.5696 50.3615 82.7863 63.6701C84.3416 80.6287 97.4997 101.1 114.697 106.744C119.676 109.24 125.258 110.67 130.112 110.219C128.394 111.172 126.676 112.1 124.945 112.953C115.462 117.669 105.653 121.696 95.5931 124.995C86.2608 128.055 76.5648 129.849 66.8436 131.091C60.4716 131.906 51.9797 131.091 46.0718 133.675C45.1937 134.064 43.538 135.832 44.0648 136.923C46.8118 142.706 62.2653 145.641 67.6213 147.222C78.7724 150.52 91.0774 150.069 102.479 148.601C121.294 146.193 141.941 139.118 156.755 126.6C161.082 137.325 169.511 146.431 178.731 153.38C191.048 162.65 210.177 172.484 226.007 172.396C226.985 172.396 229.895 169.373 228.528 168.809C209.713 160.931 197.96 144.951 189.48 127.353C205.36 132.496 225.856 128.983 240.181 125.81C250.88 123.439 261.517 119.074 269.971 111.987C274.261 108.387 281.988 102.09 282.502 96.0571C282.59 95.0536 281.348 95.4299 280.922 95.7937L280.884 95.7811Z" fill="black"/>
<path d="M276.469 102.266C271.74 107.659 267.061 111.811 260.764 115.336C252.26 120.102 242.464 122.272 232.968 123.978C222.106 125.923 206.928 127.829 193.908 125.233C190.885 125.521 187.586 124.831 184.676 123.64C184.89 125.245 185.14 126.851 185.341 128.469C191.4 144.085 202.613 157.896 216.624 167.09C204.934 164.192 193.281 157.682 183.936 151.561C173.851 144.951 164.695 135.33 159.401 124.154C159.439 124.116 159.477 124.079 159.514 124.041C159.263 123.677 159.025 123.301 158.787 122.937C156.981 124.267 155.024 125.383 152.879 126.123C138.88 134.954 124.029 140.899 107.334 143.972C96.9228 145.892 86.5745 145.892 76.1133 144.537C70.8075 143.847 65.7274 142.166 60.6975 140.398C57.9505 139.432 52.2684 138.127 49.12 135.882C55.2035 134.59 62.9052 135.017 68.4619 134.302C78.2206 133.035 87.7787 130.614 97.0984 127.528C109.491 123.439 120.479 117.217 131.593 111.021C133.023 109.666 134.44 108.299 135.883 106.944C135.306 107.258 134.716 107.584 134.139 107.91C134.164 107.722 134.114 107.572 133.926 107.484C129.786 105.54 124.907 104.812 120.529 103.445C115.048 101.726 110.219 98.5278 105.038 96.132C96.8977 89.5844 90.9522 80.1894 87.4902 69.5651C83.8526 58.3639 84.8435 45.6575 87.1766 34.3182C88.3181 28.7866 90.0741 23.2424 91.9682 17.9366C92.4574 16.1554 93.5486 14.876 95.2671 14.1109C94.8782 16.3812 94.4016 18.6265 94.0378 20.8968C89.309 51.0386 110.971 84.0151 141.427 86.8248C141.364 86.875 141.289 86.9126 141.213 86.9753L141.113 87.0632C141.477 87.0381 141.853 87.0255 142.217 87.013C142.217 86.9754 142.23 86.9377 142.217 86.9001C142.794 86.9377 143.371 86.9503 143.96 86.9628C146.833 86.9252 149.693 86.8876 152.239 85.4325C153.054 84.9684 153.782 84.429 154.447 83.8521C154.146 89.0325 152.916 93.9996 149.329 97.3362C149.091 97.5494 148.752 98.1641 148.551 98.7536C158.774 93.962 157.495 80.666 156.567 70.669C155.939 63.9332 155.601 57.1472 155.463 50.3863C155.35 44.7042 155.852 39.2603 156.642 33.7789C156.717 31.0193 156.893 28.2472 157.231 25.4752C158.548 19.5045 161.245 13.5088 164.795 9.15622C170.728 1.86852 179.258 3.311 186.934 5.33049C201.447 9.15622 186.821 15.6035 182.168 20.646C175.846 27.4821 171.882 35.2966 168.872 44.0895C168.709 44.5662 168.546 45.0805 168.395 45.5947C168.157 45.8582 167.969 46.1216 167.931 46.2595C167.241 48.7682 166.702 51.3396 166.3 53.9486C165.899 72.1115 170.088 90.4122 182.356 103.921C179.697 98.3773 177.213 92.8958 175.131 87.2011C175.896 87.5523 176.674 87.8409 177.451 88.0792C181.089 89.2081 184.864 89.5342 188.615 90.0861C188.903 90.0861 189.179 90.0987 189.455 90.1112C202.137 90.1488 214.567 84.9057 225.003 77.0034C234.887 69.515 243.593 57.4733 242.514 45.0303C246.114 49.0567 247.832 55.78 248.522 60.2454C249.839 68.7875 245.737 78.2452 240.695 84.843C233.871 93.7864 222.883 100.384 211.607 102.893C210.491 103.395 209.362 103.871 208.195 104.31C206.163 105.063 204.131 106.242 202.049 107.145C212.284 110.908 223.322 112.3 234.361 111.51C248.635 110.469 265.343 110.243 277.334 101.4C276.945 101.739 276.619 102.052 276.444 102.253L276.469 102.266Z" fill="#009C45"/>
<g style="mix-blend-mode:multiply">
<path d="M157.971 114.709C153.631 111.084 146.682 118.045 143.321 120.454C132.646 128.093 118.196 132.646 105.615 135.87C93.0971 139.081 80.2527 140.649 67.3204 140.109C62.1149 139.883 55.4042 139.306 51.591 135.468C50.7506 135.581 49.9228 135.719 49.12 135.895C52.2684 138.14 57.9505 139.444 60.6975 140.41C65.7274 142.179 70.795 143.86 76.1133 144.55C86.5745 145.904 96.9228 145.904 107.334 143.985C124.029 140.912 138.88 134.966 152.879 126.136C154.296 125.647 155.638 124.982 156.905 124.204C158.862 121.031 160.417 116.728 157.984 114.709H157.971Z" fill="#009C45"/>
</g>
<g style="mix-blend-mode:multiply">
<path d="M188.64 90.0988C184.89 89.5469 181.127 89.2208 177.476 88.0919C176.699 87.8535 175.921 87.5525 175.156 87.2138C175.407 87.8912 175.67 88.5559 175.934 89.2207C183.635 105.276 202.011 117.13 219.233 118.685C230.961 119.739 243.154 117.519 253.828 112.514C256.562 111.234 259.209 109.817 261.818 108.337C252.862 110.557 243.179 110.896 234.398 111.523C223.373 112.326 212.322 110.921 202.087 107.158C204.169 106.255 206.201 105.076 208.233 104.323C209.399 103.884 210.528 103.407 211.645 102.906C222.921 100.397 233.909 93.7991 240.733 84.8557C245.775 78.2578 249.877 68.8001 248.56 60.2581C247.87 55.7801 246.151 49.0568 242.551 45.043C243.63 57.486 234.925 69.5276 225.041 77.016C214.605 84.9184 202.174 90.1615 189.493 90.1239C189.204 90.1113 188.929 90.1113 188.653 90.0988H188.64Z" fill="#009C45"/>
</g>
<g style="mix-blend-mode:multiply">
<path d="M178.542 4.30234C180.399 7.11205 180.336 10.5615 177.965 13.0952C173.374 17.9872 168.407 21.7878 165.522 28.1222C155.274 50.7003 158.623 78.4086 176.385 95.9443C168.733 83.6267 165.999 68.7377 166.338 53.949C166.752 51.34 167.291 48.7686 167.968 46.2599C168.006 46.122 168.194 45.8585 168.432 45.5951C168.595 45.0809 168.746 44.5666 168.909 44.0899C171.907 35.297 175.883 27.4825 182.205 20.6464C186.859 15.6165 201.484 9.16917 186.971 5.33089C184.074 4.56575 181.064 3.88841 178.116 3.72534C178.266 3.91349 178.417 4.0891 178.555 4.27725L178.542 4.30234Z" fill="#009C45"/>
</g>
<g style="mix-blend-mode:multiply">
<path d="M178.38 127.303C180.073 134.001 183.159 140.31 187.361 145.804C194.034 154.522 202.801 161.195 212.585 165.961C213.927 166.388 215.27 166.777 216.612 167.115C202.601 157.908 191.374 144.111 185.329 128.494C185.266 128.03 185.203 127.578 185.14 127.127C183.071 122.574 182.03 117.506 180.788 112.288C176.147 114.809 177.313 123.113 178.38 127.315V127.303Z" fill="#009C45"/>
</g>
<g style="mix-blend-mode:multiply">
<path d="M105.051 96.1448C110.219 98.528 115.06 101.739 120.542 103.458C124.932 104.825 129.811 105.552 133.938 107.497C135.054 107.158 136.146 106.744 137.199 106.179C118.46 100.359 103.37 85.1191 96.6843 66.7556C91.0021 51.1516 87.7409 31.8725 93.2349 15.5786C92.6579 16.2309 92.2314 17.0086 91.9805 17.9368C90.0865 23.2426 88.3304 28.7743 87.189 34.3184C84.8559 45.6576 83.8524 58.3766 87.5025 69.5653C90.9645 80.1896 96.9101 89.5846 105.051 96.1322V96.1448Z" fill="#009C45"/>
</g>
<path d="M133.085 235.564C133.085 235.564 146.042 211.381 145.754 180.574C145.465 149.768 121.859 143.433 121.859 143.433C121.859 143.433 116.678 141.125 107.472 143.433C107.472 143.433 83.865 149.768 83.5765 180.574C83.288 211.381 96.2453 235.564 96.2453 235.564C96.2453 235.564 111.498 246.214 133.098 235.564H133.085Z" fill="white"/>
<path d="M113.869 241.61C102.856 241.61 95.9317 236.906 95.5052 236.605C95.3421 236.493 95.2042 236.342 95.1164 236.166C94.9909 235.916 82.0085 211.343 82.297 180.562C82.4476 164.192 89.1583 154.634 94.7652 149.517C100.861 143.935 106.882 142.279 107.133 142.204C116.678 139.821 122.147 142.166 122.373 142.267C122.436 142.267 128.457 143.922 134.553 149.504C140.16 154.634 146.87 164.18 147.021 180.549C147.309 211.318 134.34 235.903 134.202 236.154C134.076 236.392 133.875 236.58 133.65 236.693C126.199 240.368 119.501 241.598 113.869 241.598V241.61ZM97.2111 234.686C99.2181 235.928 113.166 243.78 132.144 234.611C133.712 231.513 144.738 208.696 144.475 180.599C144.199 151.172 122.448 144.926 121.52 144.675C121.294 144.587 116.365 142.53 107.773 144.675C106.87 144.913 85.1193 151.172 84.8433 180.587C84.5799 208.922 95.7812 231.877 97.2111 234.674V234.686Z" fill="black"/>
<path d="M85.1697 165.898C79.0234 165.898 76.0381 161.333 75.3106 158.836C75.1099 158.159 75.4987 157.457 76.1761 157.256C76.8534 157.055 77.5558 157.444 77.7565 158.121C77.8318 158.372 79.4248 163.666 85.7592 163.339C86.5244 163.252 87.0637 163.841 87.1014 164.544C87.139 165.246 86.6122 165.848 85.8972 165.886C85.6463 165.898 85.408 165.911 85.1571 165.911L85.1697 165.898Z" fill="black"/>
<path d="M83.6894 173.073C77.5431 173.073 74.5578 168.507 73.8303 166.011C73.6296 165.334 74.0184 164.631 74.6958 164.431C75.3731 164.23 76.0756 164.619 76.2763 165.296C76.3515 165.547 77.9822 170.853 84.2789 170.514C85.0566 170.489 85.5834 171.016 85.6211 171.718C85.6587 172.421 85.1319 173.023 84.4169 173.061C84.166 173.073 83.9277 173.086 83.6768 173.086L83.6894 173.073Z" fill="black"/>
<path d="M202.187 235.564C202.187 235.564 215.144 211.381 214.856 180.574C214.567 149.768 190.96 143.433 190.96 143.433C190.96 143.433 185.78 141.125 176.573 143.433C176.573 143.433 152.967 149.768 152.678 180.574C152.39 211.381 165.347 235.564 165.347 235.564C165.347 235.564 180.6 246.214 202.199 235.564H202.187Z" fill="white"/>
<path d="M182.97 241.61C171.957 241.61 165.033 236.906 164.607 236.605C164.444 236.493 164.306 236.342 164.218 236.166C164.092 235.916 151.11 211.343 151.399 180.562C151.549 164.192 158.26 154.634 163.867 149.517C169.963 143.935 175.984 142.279 176.234 142.204C185.78 139.821 191.236 142.166 191.475 142.267C191.537 142.267 197.558 143.922 203.654 149.504C209.261 154.634 215.972 164.18 216.122 180.549C216.411 211.318 203.441 235.903 203.303 236.154C203.178 236.392 202.977 236.58 202.739 236.693C195.288 240.368 188.59 241.598 182.958 241.598L182.97 241.61ZM166.313 234.686C168.32 235.928 182.28 243.78 201.246 234.611C202.814 231.513 213.84 208.696 213.576 180.599C213.3 151.172 191.55 144.926 190.622 144.675C190.396 144.587 185.479 142.53 176.874 144.675C175.971 144.913 154.221 151.172 153.945 180.587C153.682 208.922 164.883 231.877 166.313 234.674V234.686Z" fill="black"/>
<path d="M212.836 165.898C212.598 165.898 212.347 165.898 212.109 165.873C211.406 165.836 210.867 165.234 210.905 164.531C210.942 163.829 211.519 163.239 212.247 163.327C218.569 163.653 220.174 158.335 220.249 158.109C220.45 157.432 221.152 157.055 221.83 157.256C222.507 157.457 222.883 158.159 222.695 158.837C221.968 161.345 218.995 165.898 212.836 165.898Z" fill="black"/>
<path d="M214.943 173.073C214.705 173.073 214.454 173.073 214.203 173.048C213.501 173.011 212.962 172.408 212.999 171.706C213.037 171.004 213.589 170.477 214.341 170.502C220.638 170.841 222.281 165.51 222.344 165.284C222.545 164.606 223.26 164.23 223.924 164.431C224.602 164.632 224.978 165.334 224.79 166.011C224.062 168.52 221.077 173.073 214.931 173.073H214.943Z" fill="black"/>
<path d="M89.6349 133.825C89.6349 133.825 112.175 107.346 136.397 133.825C136.397 133.825 111.322 120.592 89.6349 133.825Z" fill="black"/>
<path d="M207.668 133.825C207.668 133.825 185.128 107.346 160.906 133.825C160.906 133.825 185.981 120.592 207.668 133.825Z" fill="black"/>
<path d="M147.071 236.405C147.084 236.317 147.096 236.229 147.109 236.141C147.121 236.016 147.147 235.903 147.159 235.778C147.159 235.728 147.184 235.677 147.184 235.615C147.209 235.477 147.159 235.728 147.184 235.59C147.247 235.339 147.31 235.1 147.385 234.862C147.523 234.411 147.698 233.971 147.836 233.507C147.974 233.068 148.112 232.642 148.263 232.203C148.301 232.103 148.263 232.027 148.25 231.939C147.836 232.103 147.385 232.303 146.971 232.516C146.82 232.742 146.67 232.968 146.532 233.194C146.269 233.608 146.055 234.059 145.842 234.511C145.654 234.925 145.491 235.339 145.353 235.765C145.303 235.928 145.253 236.104 145.215 236.279C144.362 236.254 143.496 236.267 142.618 236.355C139.746 236.631 136.698 237.07 134.214 238.65C127.855 242.739 133.336 251.871 136.886 255.91C138.667 257.942 140.988 260.124 143.597 261.329C140.963 258.883 138.743 255.935 137.037 252.874C135.97 250.968 135.13 248.848 134.591 246.728C134.377 245.888 134.177 244.809 134.214 243.78C134.139 242.639 134.315 241.56 135.067 240.833C136.635 239.315 139.721 239.014 141.765 238.688C144.274 238.286 146.846 238.299 149.404 238.5C151.436 238.374 153.468 238.299 155.5 238.261C152.666 237.471 149.906 236.706 147.071 236.405Z" fill="black"/>
<mask id="mask0_19_136" style="mask-type:luminance" maskUnits="userSpaceOnUse" x="83" y="142" width="63" height="99">
<path d="M133.085 235.564C133.085 235.564 146.042 211.38 145.754 180.574C145.465 149.767 121.859 143.433 121.859 143.433C121.859 143.433 116.678 141.125 107.472 143.433C107.472 143.433 83.865 149.767 83.5765 180.574C83.288 211.38 96.2453 235.564 96.2453 235.564C96.2453 235.564 111.498 246.213 133.098 235.564H133.085Z" fill="white"/>
</mask>
<g mask="url(#mask0_19_136)">
<path d="M99.2557 226.822C110.977 226.822 120.479 213.551 120.479 197.182C120.479 180.812 110.977 167.542 99.2557 167.542C87.5343 167.542 78.0323 180.812 78.0323 197.182C78.0323 213.551 87.5343 226.822 99.2557 226.822Z" fill="black"/>
<path d="M127.127 186.068C127.127 193.908 122.574 200.255 116.967 200.255C111.36 200.255 106.807 193.908 106.807 186.068C106.807 178.229 111.36 171.882 116.967 171.882C122.574 171.882 127.127 178.229 127.127 186.068Z" fill="white"/>
</g>
<mask id="mask1_19_136" style="mask-type:luminance" maskUnits="userSpaceOnUse" x="152" y="142" width="63" height="99">
<path d="M202.187 235.564C202.187 235.564 215.144 211.38 214.856 180.574C214.567 149.767 190.96 143.433 190.96 143.433C190.96 143.433 185.78 141.125 176.573 143.433C176.573 143.433 152.967 149.767 152.678 180.574C152.39 211.38 165.347 235.564 165.347 235.564C165.347 235.564 180.6 246.213 202.199 235.564H202.187Z" fill="white"/>
</mask>
<g mask="url(#mask1_19_136)">
<path d="M171.518 226.822C183.24 226.822 192.742 213.551 192.742 197.182C192.742 180.812 183.24 167.542 171.518 167.542C159.797 167.542 150.295 180.812 150.295 197.182C150.295 213.551 159.797 226.822 171.518 226.822Z" fill="black"/>
<path d="M199.39 186.068C199.39 193.908 194.836 200.255 189.229 200.255C183.623 200.255 179.069 193.908 179.069 186.068C179.069 178.229 183.623 171.882 189.229 171.882C194.836 171.882 199.39 178.229 199.39 186.068Z" fill="white"/>
</g>
<path d="M143.333 289.413C116.415 289.413 98.3528 277.234 98.0768 277.045C97.4998 276.644 97.3493 275.854 97.7507 275.277C98.1521 274.7 98.9423 274.562 99.5193 274.951C99.6322 275.026 110.357 282.339 127.353 285.512C143.007 288.435 167.354 288.322 194.46 271.263C195.05 270.887 195.84 271.062 196.216 271.664C196.593 272.254 196.417 273.044 195.815 273.42C176.561 285.537 158.536 289.426 143.333 289.426V289.413Z" fill="black"/>
<path d="M158.724 286.842C158.724 286.842 152.804 264.239 161.333 259.661C170.778 254.581 179.922 256.838 186.972 276.557C186.972 276.557 173.939 285.425 158.737 286.842H158.724Z" fill="white"/>
<path d="M158.724 288.121C158.147 288.121 157.645 287.733 157.495 287.168C157.244 286.202 151.436 263.536 160.731 258.544C165.573 255.948 170.038 255.408 173.989 256.926C179.684 259.121 184.325 265.405 188.163 276.142C188.364 276.682 188.163 277.296 187.687 277.623C187.147 277.999 174.215 286.691 158.849 288.121C158.812 288.121 158.774 288.121 158.737 288.121H158.724ZM169.373 258.619C167.09 258.619 164.619 259.334 161.923 260.789C156.002 263.975 158.109 278.789 159.69 285.462C171.794 284.045 182.431 277.899 185.416 276.042C181.967 266.748 177.815 261.116 173.074 259.297C171.895 258.845 170.665 258.619 169.373 258.619Z" fill="black"/>
<path d="M173.299 284.321C172.66 284.321 172.108 283.844 172.033 283.192C171.029 274.424 167.667 269.921 167.642 269.883C167.216 269.319 167.316 268.529 167.881 268.102C168.433 267.676 169.235 267.776 169.662 268.328C169.825 268.529 173.488 273.37 174.566 282.903C174.642 283.606 174.14 284.233 173.45 284.308C173.4 284.308 173.35 284.308 173.299 284.308V284.321Z" fill="black"/>
<path d="M207.317 282.84C207.179 282.84 207.041 282.815 206.903 282.765C200.506 280.57 196.191 276.958 194.059 272.041C190.534 263.887 194.372 255.207 194.535 254.831C194.824 254.191 195.564 253.903 196.216 254.191C196.856 254.48 197.144 255.232 196.856 255.872C196.818 255.947 193.319 263.938 196.404 271.037C198.236 275.264 202.049 278.388 207.718 280.344C208.383 280.57 208.734 281.298 208.509 281.962C208.333 282.489 207.831 282.828 207.305 282.828L207.317 282.84Z" fill="black"/>
<path d="M103.583 247.129C103.583 252.034 96.4837 255.998 87.741 255.998C78.9982 255.998 71.8987 252.021 71.8987 247.129C71.8987 242.237 78.9982 238.261 87.741 238.261C96.4837 238.261 103.583 242.237 103.583 247.129Z" fill="white" fill-opacity="0.8"/>
<path d="M231.814 245.01C231.814 249.914 224.715 253.878 215.972 253.878C207.229 253.878 200.13 249.901 200.13 245.01C200.13 240.118 207.229 236.141 215.972 236.141C224.715 236.141 231.814 240.118 231.814 245.01Z" fill="white" fill-opacity="0.8"/>
</g>
<defs>
<clipPath id="clip0_19_136">
<rect width="300" height="333.403" fill="white"/>
</clipPath>
</defs>
</svg>
